<?xml version="1.0" encoding="UTF-8" standalone="no"?>
<!-- Generator: Adobe Illustrator 19.0.0, SVG Export Plug-In . SVG Version: 6.00 Build 0)  -->

<svg
   version="1.1"
   id="Layer_1"
   x="0px"
   y="0px"
   viewBox="0 0 512 512"
   style="enable-background:new 0 0 512 512;"
   xml:space="preserve"
   sodipodi:docname="building.svg"
   inkscape:version="1.1.1 (3bf5ae0d25, 2021-09-20)"
   xmlns:inkscape="http://www.inkscape.org/namespaces/inkscape"
   xmlns:sodipodi="http://sodipodi.sourceforge.net/DTD/sodipodi-0.dtd"
   xmlns="http://www.w3.org/2000/svg"
   xmlns:svg="http://www.w3.org/2000/svg"><defs
   id="defs1687" /><sodipodi:namedview
   id="namedview1685"
   pagecolor="#ffffff"
   bordercolor="#666666"
   borderopacity="1.0"
   inkscape:pageshadow="2"
   inkscape:pageopacity="0.0"
   inkscape:pagecheckerboard="0"
   showgrid="false"
   inkscape:zoom="1.5664062"
   inkscape:cx="256.3192"
   inkscape:cy="256.3192"
   inkscape:window-width="1920"
   inkscape:window-height="991"
   inkscape:window-x="-9"
   inkscape:window-y="-9"
   inkscape:window-maximized="1"
   inkscape:current-layer="Layer_1" />
<g
   id="g1652"
   style="fill:#0a3847;fill-opacity:1">
	<g
   id="g1650"
   style="fill:#0a3847;fill-opacity:1">
		<path
   d="M490.667,170.667h-256V64c0-11.776-9.536-21.333-21.333-21.333h-192C9.536,42.667,0,52.224,0,64v384    c0,11.776,9.536,21.333,21.333,21.333H64v-128C64,329.557,73.536,320,85.333,320h64c11.797,0,21.333,9.557,21.333,21.333v128    h42.667h277.333c11.797,0,21.333-9.557,21.333-21.333V192C512,180.224,502.464,170.667,490.667,170.667z M106.667,277.333    c0,11.776-9.536,21.333-21.333,21.333c-11.797,0-21.333-9.557-21.333-21.333V256c0-11.776,9.536-21.333,21.333-21.333    c11.797,0,21.333,9.557,21.333,21.333V277.333z M106.667,170.667c0,11.776-9.536,21.333-21.333,21.333    C73.536,192,64,182.443,64,170.667v-21.333C64,137.557,73.536,128,85.333,128c11.797,0,21.333,9.557,21.333,21.333V170.667z     M170.667,277.333c0,11.776-9.536,21.333-21.333,21.333c-11.797,0-21.333-9.557-21.333-21.333V256    c0-11.776,9.536-21.333,21.333-21.333c11.797,0,21.333,9.557,21.333,21.333V277.333z M170.667,170.667    c0,11.776-9.536,21.333-21.333,21.333C137.536,192,128,182.443,128,170.667v-21.333c0-11.776,9.536-21.333,21.333-21.333    c11.797,0,21.333,9.557,21.333,21.333V170.667z M320,384c0,11.776-9.536,21.333-21.333,21.333    c-11.797,0-21.333-9.557-21.333-21.333v-21.333c0-11.776,9.536-21.333,21.333-21.333c11.797,0,21.333,9.557,21.333,21.333V384z     M320,277.333c0,11.776-9.536,21.333-21.333,21.333c-11.797,0-21.333-9.557-21.333-21.333V256    c0-11.776,9.536-21.333,21.333-21.333c11.797,0,21.333,9.557,21.333,21.333V277.333z M426.667,384    c0,11.776-9.536,21.333-21.333,21.333C393.536,405.333,384,395.776,384,384v-21.333c0-11.776,9.536-21.333,21.333-21.333    c11.797,0,21.333,9.557,21.333,21.333V384z M426.667,277.333c0,11.776-9.536,21.333-21.333,21.333    c-11.797,0-21.333-9.557-21.333-21.333V256c0-11.776,9.536-21.333,21.333-21.333c11.797,0,21.333,9.557,21.333,21.333V277.333z"
   id="path1648"
   style="fill:#0a3847;fill-opacity:1" />
	</g>
</g>
<g
   id="g1654">
</g>
<g
   id="g1656">
</g>
<g
   id="g1658">
</g>
<g
   id="g1660">
</g>
<g
   id="g1662">
</g>
<g
   id="g1664">
</g>
<g
   id="g1666">
</g>
<g
   id="g1668">
</g>
<g
   id="g1670">
</g>
<g
   id="g1672">
</g>
<g
   id="g1674">
</g>
<g
   id="g1676">
</g>
<g
   id="g1678">
</g>
<g
   id="g1680">
</g>
<g
   id="g1682">
</g>
</svg>
