<?xml version="1.0" encoding="UTF-8" standalone="no"?>
<svg
   height="24px"
   viewBox="0 0 24 24"
   width="24px"
   fill="#000000"
   version="1.1"
   id="svg6"
   sodipodi:docname="favorite_heart_liked.svg"
   inkscape:version="1.1.1 (3bf5ae0d25, 2021-09-20)"
   xmlns:inkscape="http://www.inkscape.org/namespaces/inkscape"
   xmlns:sodipodi="http://sodipodi.sourceforge.net/DTD/sodipodi-0.dtd"
   xmlns="http://www.w3.org/2000/svg"
   xmlns:svg="http://www.w3.org/2000/svg">
  <defs
     id="defs10" />
  <sodipodi:namedview
     id="namedview8"
     pagecolor="#ffffff"
     bordercolor="#666666"
     borderopacity="1.0"
     inkscape:pageshadow="2"
     inkscape:pageopacity="0.0"
     inkscape:pagecheckerboard="0"
     showgrid="false"
     inkscape:zoom="45.254834"
     inkscape:cx="12.982039"
     inkscape:cy="11.589922"
     inkscape:window-width="1920"
     inkscape:window-height="991"
     inkscape:window-x="-9"
     inkscape:window-y="-9"
     inkscape:window-maximized="1"
     inkscape:current-layer="svg6" />
  <path
     d="M0 0h24v24H0V0z"
     fill="none"
     id="path2" />
  <path
     d="M16.5 3c-1.74 0-3.41.81-4.5 2.09C10.91 3.81 9.24 3 7.5 3 4.42 3 2 5.42 2 8.5c0 3.78 3.4 6.86 8.55 11.54L12 21.35l1.45-1.32C18.6 15.36 22 12.28 22 8.5 22 5.42 19.58 3 16.5 3zm-4.4 15.55l-.1.1-.1-.1C7.14 14.24 4 11.39 4 8.5 4 6.5 5.5 5 7.5 5c1.54 0 3.04.99 3.57 2.36h1.87C13.46 5.99 14.96 5 16.5 5c2 0 3.5 1.5 3.5 3.5 0 2.89-3.14 5.74-7.9 10.05z"
     id="path4"
     style="fill:#fb6100;fill-opacity:1" />
  <path
     style="fill:#fb6100;stroke-width:0.0368098;fill-opacity:1"
     d="M 11.078374,17.773789 C 7.675928,14.693625 6.1281209,13.087559 5.15682,11.62935 4.5930084,10.782902 4.2839659,10.113778 4.1136415,9.3707086 4.0029251,8.8876895 4.0047026,8.095674 4.1175294,7.6382915 4.3538063,6.6804616 4.991926,5.8579926 5.8355936,5.4238876 6.3978203,5.1345968 6.8553895,5.02862 7.5276073,5.0320035 c 0.387674,0.00195 0.545436,0.019976 0.8309363,0.094934 0.7240347,0.1900955 1.2996835,0.5002145 1.7971064,0.9681543 0.355568,0.3344932 0.56924,0.6111891 0.762163,0.9869713 l 0.143537,0.2795845 0.949161,1.583e-4 0.94916,1.583e-4 0.07478,-0.1744563 c 0.131015,-0.3056456 0.460654,-0.7593734 0.757522,-1.042683 1.398638,-1.3347601 3.436568,-1.497833 4.889007,-0.391213 0.547016,0.4167737 1.019083,1.1573123 1.201253,1.8844251 0.114004,0.4550326 0.115884,1.2450998 0.0041,1.7326719 -0.414437,1.8080541 -1.845279,3.6635411 -5.309671,6.8854731 -1.062917,0.988528 -2.546359,2.332775 -2.57433,2.332775 -0.01294,0 -0.42873,-0.366825 -0.923983,-0.815168 z"
     id="path951" />
  <path
     style="fill:#fb6100;fill-opacity:1;stroke-width:0.00390625"
     d="m 16.058655,14.84041 c 0.723597,-0.717314 1.299052,-1.33 1.787275,-1.90291 0.848524,-0.995709 1.409249,-1.848913 1.750174,-2.663079 0.03329,-0.07951 0.03521,-0.083 0.0455,-0.08301 0.0059,-4e-6 0.01074,6.63e-4 0.01074,0.0015 0,0.0023 -0.05894,0.143313 -0.08101,0.193824 -0.06467,0.148023 -0.180792,0.384355 -0.261036,0.53125 -0.61824,1.131757 -1.629915,2.35881 -3.290174,3.990629 -0.205676,0.202153 -0.216891,0.212496 -0.230408,0.212496 -0.01385,0 -0.007,-0.0072 0.268934,-0.280684 z"
     id="path1027" />
  <path
     style="fill:#fb6100;fill-opacity:1;stroke-width:0.00390625"
     d="m 15.513672,15.407226 c 0.539828,-0.51782 1.112481,-1.091526 1.515918,-1.518706 1.198754,-1.269303 1.994111,-2.337594 2.448647,-3.288922 l 0.04479,-0.09374 0.967004,-9.84e-4 0.967003,-9.84e-4 -3.9e-5,0.28614 -3.9e-5,0.286141 -0.02863,0.06641 c -0.120997,0.280641 -0.286396,0.609532 -0.454771,0.904297 -0.500498,0.876197 -1.199222,1.799281 -2.151086,2.841797 -0.155622,0.170442 -0.384197,0.415006 -0.468226,0.500976 l -0.04295,0.04395 -1.412494,-7.1e-5 -1.412494,-7e-5 0.02734,-0.02623 z"
     id="path1066" />
  <path
     style="fill:#fb6100;fill-opacity:1;stroke-width:0.00390625"
     d="m 15.804881,15.098633 c 0.0092,-0.0102 0.159382,-0.160938 0.333632,-0.334961 0.800698,-0.799653 1.355825,-1.397848 1.859634,-2.003906 0.643089,-0.773606 1.097944,-1.445021 1.422967,-2.100452 0.0659,-0.132899 0.07816,-0.155159 0.08548,-0.155274 0.0085,-1.32e-4 0.0084,1.46e-4 -0.0033,0.02623 -0.02183,0.04856 -0.135402,0.275585 -0.173251,0.346331 -0.372354,0.695983 -0.935314,1.474343 -1.675512,2.316597 -0.406607,0.462669 -0.811643,0.890534 -1.39054,1.468914 -0.343054,0.342748 -0.459021,0.455073 -0.469829,0.455073 -0.004,0 -3.19e-4,-0.0064 0.01073,-0.01856 z"
     id="path1105" />
  <path
     style="fill:#fb6100;fill-opacity:1;stroke-width:0.00390625"
     d="m 15.811182,15.091241 c 0.01253,-0.01427 0.103645,-0.105834 0.202479,-0.203473 1.241916,-1.226897 2.117765,-2.221692 2.735077,-3.106518 0.282413,-0.404798 0.532459,-0.826248 0.709905,-1.19654 0.03365,-0.07022 0.03989,-0.0808 0.04764,-0.0808 h 0.0089 l -0.0098,0.02246 c -0.02063,0.04709 -0.151487,0.307061 -0.191212,0.379883 -0.250291,0.458822 -0.581729,0.957062 -0.960148,1.443359 -0.447283,0.574794 -0.947487,1.141862 -1.633242,1.851563 -0.159698,0.165274 -0.770602,0.775954 -0.856771,0.856455 -0.06688,0.06248 -0.09242,0.07874 -0.0528,0.03361 z"
     id="path1144" />
  <path
     style="fill:#fb6100;fill-opacity:1;stroke-width:0.00390625"
     d="m 13.527344,12.96875 v -2.464844 h 2.980468 c 1.639258,0 2.980469,10e-4 2.980469,0.0022 0,0.0048 -0.08214,0.172416 -0.127169,0.259476 -0.486951,0.941499 -1.273828,1.965211 -2.499537,3.251846 -0.34323,0.360291 -0.882656,0.900375 -1.34724,1.348883 l -0.06965,0.06724 h -0.958671 -0.95867 z"
     id="path1183" />
  <path
     style="fill:#fb6100;fill-opacity:1;stroke-width:0.00390625"
     d="m 15.80792,15.094727 c 0.0108,-0.01235 0.118322,-0.120899 0.238943,-0.241211 0.520223,-0.51889 0.778194,-0.783784 1.093762,-1.123115 0.946553,-1.017831 1.618879,-1.886728 2.067365,-2.671807 0.08463,-0.148152 0.143891,-0.259476 0.220915,-0.415019 0.05944,-0.120036 0.07034,-0.13963 0.07771,-0.139648 l 0.0086,-2.1e-5 -0.008,0.01855 c -0.01568,0.0363 -0.148008,0.300827 -0.180894,0.361614 -0.490327,0.906301 -1.234994,1.874112 -2.335782,3.035712 -0.281302,0.296843 -0.987165,1.009692 -1.13443,1.145656 -0.05866,0.05416 -0.08263,0.06874 -0.04814,0.02928 z"
     id="path1222" />
  <path
     style="fill:#fb6100;fill-opacity:1;stroke-width:0.00390625"
     d="m 15.515625,15.405173 c 0.01611,-0.01556 0.109277,-0.105567 0.207031,-0.200008 0.353693,-0.341706 0.927847,-0.918585 1.224801,-1.230613 1.265607,-1.329856 2.08275,-2.424259 2.549819,-3.414982 l 0.02624,-0.05566 h 0.966757 0.966756 v 0.286653 0.286652 l -0.03738,0.08542 c -0.08885,0.203043 -0.221681,0.475788 -0.324104,0.665496 -0.477803,0.884986 -1.144529,1.798371 -2.069997,2.835804 -0.203414,0.228024 -0.533713,0.585177 -0.669346,0.723766 l -0.04492,0.0459 -1.412479,-6.2e-5 -1.412479,-6.2e-5 z"
     id="path1261" />
  <path
     style="fill:#fb6100;fill-opacity:1;stroke-width:0.00390625"
     d="m 13.527344,12.96875 v -2.464844 h 2.980468 c 1.639258,0 2.980469,0.0011 2.980469,0.0025 0,0.0049 -0.08376,0.175702 -0.128608,0.262205 -0.452337,0.872401 -1.155995,1.808458 -2.220581,2.953976 -0.439165,0.472553 -0.998855,1.038835 -1.62657,1.64573 l -0.06756,0.06532 H 14.486151 13.52734 Z"
     id="path1300" />
  <path
     style="fill:#fb6100;fill-opacity:1;stroke-width:0.00390625"
     d="m 15.519531,15.401257 c 0.01826,-0.01772 0.114063,-0.110357 0.212891,-0.205852 0.178275,-0.172261 0.793873,-0.785233 0.955078,-0.951003 1.419019,-1.459201 2.303881,-2.618709 2.806066,-3.677019 l 0.03012,-0.06348 h 0.966672 0.966672 v 0.286653 0.286652 l -0.03738,0.08542 c -0.115307,0.2635 -0.25671,0.547653 -0.399205,0.802215 -0.505067,0.902277 -1.217443,1.850267 -2.194203,2.919922 -0.161352,0.176697 -0.376481,0.407045 -0.467875,0.500976 l -0.04656,0.04785 -1.412741,-5.6e-5 -1.412741,-5.6e-5 z"
     id="path1339" />
  <path
     style="fill:#fb6100;fill-opacity:1;stroke-width:0.00390625"
     d="m 15.488281,15.432302 c 0,-7.11e-4 0.0628,-0.0618 0.139546,-0.135743 0.492168,-0.474196 1.057894,-1.043834 1.44093,-1.450895 1.18716,-1.261621 1.962415,-2.308966 2.420832,-3.270469 l 0.03399,-0.07129 h 0.966727 0.966727 v 0.287043 0.287043 l -0.03482,0.07945 c -0.119835,0.273411 -0.271213,0.576236 -0.419438,0.839073 -0.49813,0.883294 -1.197959,1.81364 -2.154896,2.864701 -0.158469,0.174056 -0.384937,0.416892 -0.48735,0.522573 l -0.04826,0.0498 h -1.41199 c -0.776594,0 -1.41199,-5.82e-4 -1.41199,-0.0013 z"
     id="path1378" />
  <path
     style="fill:#fb6100;fill-opacity:1;stroke-width:0.00390625"
     d="m 13.527344,12.96875 v -2.464844 h 2.980468 c 1.639258,0 2.980469,7.82e-4 2.980469,0.0017 0,0.0065 -0.08398,0.177963 -0.136881,0.279513 -0.528902,1.015314 -1.416666,2.140377 -2.818804,3.572266 -0.188486,0.192485 -0.630487,0.632826 -0.819656,0.816576 -0.07732,0.0751 -0.169081,0.164234 -0.203922,0.198072 l -0.06335,0.06152 H 14.486504 13.52734 Z"
     id="path1417" />
  <path
     style="fill:#fb6100;fill-opacity:1;stroke-width:0.00390625"
     d="m 13.527344,12.96875 v -2.464844 h 2.980468 c 1.639258,0 2.980469,0.0012 2.980469,0.0026 0,0.01102 -0.140888,0.289849 -0.212854,0.421251 -0.425421,0.776767 -1.079351,1.643368 -1.988164,2.634753 -0.349913,0.381704 -0.591728,0.632809 -1.072302,1.113497 -0.351649,0.351731 -0.397904,0.397443 -0.649033,0.641405 l -0.119618,0.116205 h -0.959483 -0.959483 z"
     id="path1456" />
  <path
     style="fill:#fb6100;fill-opacity:1;stroke-width:0.00390625"
     d="M 10.929314,20.379634 C 10.122578,19.650451 9.1195615,18.735903 8.5379753,18.199219 l -0.1121762,-0.103516 -8.9e-6,-1.124023 -8.9e-6,-1.124024 h 0.2618719 0.261872 l 0.159045,0.149414 c 0.560558,0.526614 1.2769508,1.183829 2.3191638,2.12759 0.242774,0.21984 0.47085,0.428924 0.506836,0.46463 L 12,18.654211 12.06543,18.58934 c 0.03599,-0.03568 0.244726,-0.227212 0.463867,-0.425629 1.113428,-1.008133 1.885471,-1.716693 2.426489,-2.226965 l 0.09446,-0.08909 h 0.652613 0.652613 v 0.756836 0.756836 l -0.163077,0.152746 c -0.577551,0.540946 -1.142461,1.060087 -2.092783,1.923205 -0.612641,0.556425 -1.067686,0.970189 -1.27539,1.159691 l -0.197266,0.179977 -0.628906,1.17e-4 -0.628906,1.17e-4 -0.439827,-0.397546 z"
     id="path1495" />
  <path
     style="fill:#fb6100;fill-opacity:1;stroke-width:0.00390625"
     d="m 11.958911,18.605054 c -0.02144,-0.02171 -0.216528,-0.20054 -0.43352,-0.397395 -1.287917,-1.168396 -2.0967444,-1.911147 -2.5323748,-2.325495 l -0.036281,-0.03451 h 0.014222 c 0.016965,0 -3.526e-4,-0.01508 0.2109104,0.183617 1.0074194,0.947481 2.7833594,2.558571 2.8203684,2.558571 0.0073,0 0.04784,-0.03336 0.161894,-0.13308 0.512591,-0.448173 2.011157,-1.817735 2.749083,-2.512428 0.09586,-0.09024 0.103656,-0.09668 0.117093,-0.09668 0.01419,0 0.01429,1.05e-4 0.0067,0.0073 -0.611104,0.575458 -1.402087,1.301764 -2.503798,2.299069 -0.229883,0.208097 -0.443478,0.403602 -0.474657,0.434455 -0.03118,0.03085 -0.05758,0.0561 -0.05867,0.0561 -0.0011,0 -0.01952,-0.01776 -0.04097,-0.03948 z"
     id="path1534" />
  <path
     style="fill:#fb6100;fill-opacity:1;stroke-width:0.00390625"
     d="m 11.960938,18.604367 c -0.05279,-0.0513 -0.152205,-0.142166 -0.761719,-0.696263 -0.754437,-0.685842 -1.167967,-1.063911 -1.5721547,-1.437338 -0.3529285,-0.326068 -0.6663338,-0.619972 -0.6639142,-0.622602 0.00383,-0.0042 0.022986,0.0053 0.039566,0.01959 0.010322,0.0089 0.098749,0.09111 0.1965026,0.182738 0.6388448,0.598781 1.4752003,1.366623 2.1171873,1.943749 0.475949,0.427862 0.668973,0.595604 0.685376,0.595604 0.0093,0 0.02262,-0.01 0.08611,-0.06424 0.369899,-0.316244 1.835647,-1.651978 2.683337,-2.445322 0.22884,-0.214168 0.236237,-0.220854 0.251655,-0.227465 0.0072,-0.0031 0.01377,-0.005 0.01456,-0.0042 0.0023,0.0023 -0.344261,0.326412 -0.740599,0.692459 -0.420905,0.388736 -0.875074,0.803856 -1.455107,1.329996 -0.483262,0.43836 -0.700896,0.636885 -0.774019,0.706054 -0.03691,0.03491 -0.06768,0.06343 -0.06839,0.06338 -7.05e-4,-5.5e-5 -0.01798,-0.01633 -0.03839,-0.03616 z"
     id="path1573" />
  <path
     style="fill:#fb6100;fill-opacity:1;stroke-width:0.00390625"
     d="m 12.515625,18.365522 v -0.189165 l 0.227539,-0.206301 c 0.982106,-0.890437 1.711669,-1.561346 2.282199,-2.098717 0.79789,-0.751517 1.583658,-1.532305 2.101558,-2.088238 0.05799,-0.06225 0.115119,-0.123316 0.126953,-0.135706 l 0.02152,-0.02253 1.311218,10e-4 1.311218,0.001 -0.05891,0.07422 c -0.27961,0.352268 -0.615313,0.746999 -0.92687,1.089844 -0.514366,0.566019 -1.048952,1.115647 -1.742131,1.791149 -0.505451,0.492561 -1.247178,1.189419 -2.015619,1.893689 l -0.08594,0.07876 -1.276367,3.9e-5 -1.276367,3.3e-5 z"
     id="path1612" />
  <path
     style="fill:#fb6100;fill-opacity:1;stroke-width:0.00390625"
     d="m 12.515625,18.365432 v -0.189256 l 0.208008,-0.188599 c 2.081858,-1.887601 3.035607,-2.790532 4.063462,-3.846952 0.09569,-0.09835 0.226153,-0.235708 0.35901,-0.377985 L 17.274631,13.625 h 1.31224 1.312239 l -0.02078,0.02637 c -0.390344,0.495385 -0.811113,0.980484 -1.340846,1.545847 -0.34172,0.364703 -0.905723,0.936026 -1.349988,1.367509 -0.616142,0.598414 -1.185954,1.133921 -2.056531,1.932718 l -0.06239,0.05725 h -1.276477 -1.276477 z"
     id="path1651" />
  <path
     style="fill:#fb6100;fill-opacity:1;stroke-width:0.00390625"
     d="m 15.019531,15.846226 c 0,-7.86e-4 0.06457,-0.06275 0.143485,-0.137695 0.16186,-0.153716 0.400903,-0.383236 0.531764,-0.510577 0.04818,-0.04689 0.08867,-0.08357 0.08997,-0.08151 0.0013,0.0021 0.0057,0.0044 0.0098,0.0052 0.0086,0.0017 -0.179579,0.184207 -0.68518,0.664551 -0.05571,0.05293 -0.06617,0.06125 -0.07715,0.06136 -0.007,7e-5 -0.0127,-5.16e-4 -0.0127,-0.0013 z"
     id="path1690" />
  <path
     style="fill:#fb6100;fill-opacity:1;stroke-width:0.00390625"
     d="m 19.762323,9.8271484 c 0.08134,-0.2573484 0.133734,-0.466723 0.161102,-0.6438269 0.0313,-0.202568 0.04574,-0.4162638 0.04578,-0.6774621 C 19.969248,8.251667 19.95687,8.061187 19.927327,7.8613281 19.871621,7.4844623 19.709869,7.05877 19.47168,6.6621781 19.254543,6.3006385 18.977447,5.9791536 18.697266,5.7637069 18.201914,5.382804 17.631832,5.1428314 17.013672,5.0550085 c -0.06975,-0.00991 -0.187318,-0.021913 -0.277344,-0.028317 -0.102479,-0.00729 -0.372756,-0.00611 -0.480469,0.00209 -0.399836,0.030461 -0.763038,0.1129243 -1.130105,0.2565849 l -0.06761,0.026459 0.0012,-0.012013 c 0.0012,-0.011708 0.0028,-0.012645 0.06565,-0.036896 0.338603,-0.1307226 0.705343,-0.2161831 1.060547,-0.2471368 0.2029,-0.017681 0.445988,-0.016939 0.662109,0.00202 0.8307,0.072881 1.590442,0.4214239 2.154297,0.9883161 0.427085,0.4293855 0.727297,0.9617375 0.880604,1.5615352 0.05906,0.2310716 0.09387,0.4593623 0.109658,0.7192623 0.0052,0.085945 0.0052,0.3378061 -6.7e-5,0.4289602 -0.02054,0.3566244 -0.08284,0.6979123 -0.193937,1.0624408 -0.02551,0.083715 -0.02605,0.084961 -0.0366,0.084961 h -0.01071 l 0.01142,-0.036133 z"
     id="path1729" />
  <path
     style="fill:#fb6100;fill-opacity:1;stroke-width:0.00390625"
     d="M 15.058594,9.2734341 V 6.808587 l 2.24707,9.799e-4 2.24707,9.8e-4 0.04573,0.089844 c 0.147066,0.2889311 0.253981,0.585517 0.305569,0.8476563 0.06301,0.3201729 0.08006,0.7970063 0.04309,1.2050781 -0.02685,0.296332 -0.08526,0.5592012 -0.202688,0.9121094 -0.188611,0.5668463 -0.46821,1.1186313 -0.878343,1.7333983 l -0.09316,0.139648 h -1.857165 -1.857164 z"
     id="path1768" />
  <path
     style="fill:#fb6100;fill-opacity:1;stroke-width:0.00390625"
     d="m 19.632812,10.188711 c 0,-0.0018 0.0138,-0.03924 0.03066,-0.08327 0.01687,-0.04403 0.04348,-0.116528 0.05915,-0.1611081 0.02618,-0.074502 0.02923,-0.081055 0.0377,-0.081055 0.0051,0 0.0092,0.0016 0.0092,0.00357 0,0.00683 -0.05473,0.1630221 -0.08498,0.2425281 -0.02869,0.0754 -0.03109,0.08015 -0.0411,0.08131 -0.0058,6.8e-4 -0.01063,-2.1e-4 -0.01063,-0.002 z"
     id="path1807" />
  <path
     style="fill:#fb6100;fill-opacity:1;stroke-width:0.00390625"
     d=""
     id="path1846" />
  <path
     style="fill:#fb6100;fill-opacity:1;stroke-width:0.00390625"
     d="m 12.968631,7.2939453 c 0.32616,-0.7968119 0.983406,-1.4741917 1.833721,-1.8898943 0.116814,-0.057108 0.253746,-0.1164893 0.255647,-0.1108621 0.0022,0.00643 -0.0031,0.023217 -0.0073,0.023217 -0.007,0 -0.129489,0.054966 -0.212826,0.095472 -0.48004,0.2333193 -0.937162,0.5811141 -1.265876,0.963122 -0.106176,0.1233902 -0.223839,0.2782902 -0.316536,0.416711 -0.108049,0.1613445 -0.183735,0.3007567 -0.255658,0.4709182 -0.03562,0.08427 -0.04193,0.096622 -0.0494,0.09668 -0.0081,6.25e-5 -0.0071,-0.00361 0.01821,-0.065364 z"
     id="path1885" />
  <path
     style="fill:#fb6100;fill-opacity:1;stroke-width:0.015625"
     d="M 10.257346,6.1870309 C 10.189256,6.1185389 10.140588,6.0625 10.149195,6.0625 c 0.02038,0 0.249972,0.2310408 0.239752,0.2412613 -0.0043,0.00429 -0.06351,-0.048239 -0.131601,-0.1167304 z"
     id="path1961" />
  <path
     style="fill:#fb6100;fill-opacity:1;stroke-width:0.015625"
     d=""
     id="path2000" />
  <path
     style="fill:#fb6100;fill-opacity:1;stroke-width:0.015625"
     d=""
     id="path2113" />
  <path
     style="fill:#fb6100;fill-opacity:1;stroke-width:0.015625"
     d=""
     id="path2226" />
  <path
     style="fill:#fb6100;fill-opacity:1;stroke-width:0.00390625"
     d="m 11.064432,7.3408283 c -0.0038,-0.01021 -0.02004,-0.049324 -0.03605,-0.086922 C 10.876503,6.8971441 10.647119,6.5517474 10.359749,6.2471061 9.9630901,5.8266077 9.4604717,5.4887802 8.9082031,5.2714711 8.7491137,5.2088719 8.6084798,5.1632362 8.4277344,5.115559 L 8.3769534,5.102164 10.69043,5.1018634 13.003906,5.1015627 v 1.0479006 1.0479005 l -0.03303,0.080029 -0.03303,0.080029 -0.93323,9.845e-4 -0.93323,9.847e-4 z"
     id="path2265" />
  <path
     style="fill:#fb6100;fill-opacity:1;stroke-width:0.00390625"
     d="m 11.064432,7.3408283 c -0.0038,-0.01021 -0.01967,-0.048445 -0.03523,-0.084969 C 10.728961,6.5509226 10.151817,5.9274627 9.4152823,5.5124245 9.1133032,5.3422588 8.8000734,5.2155014 8.4490032,5.1213917 L 8.3769531,5.1020776 10.69043,5.10182 13.003906,5.1015625 v 1.0487972 1.0487972 l -0.02117,0.049836 c -0.01164,0.02741 -0.02639,0.063019 -0.03277,0.079133 l -0.01159,0.029297 -0.933497,9.845e-4 -0.933496,9.847e-4 z"
     id="path2304" />
  <path
     style="fill:#fb6100;fill-opacity:1;stroke-width:0.00390625"
     d="M 11.057429,7.3489958 C 10.921079,7.0808391 10.844902,6.9385875 10.787943,6.8457598 10.673821,6.6597718 10.531231,6.4744726 10.381836,6.3180123 c -0.0188,-0.019688 -0.03418,-0.03701 -0.03418,-0.038494 0,-0.00148 0.0077,0.00357 0.017,0.011236 0.02451,0.020082 0.03462,0.018183 0.01771,-0.00332 -0.0045,-0.00577 -0.0074,-0.011364 -0.0063,-0.012423 0.0026,-0.00257 0.05725,0.057273 0.117614,0.1287186 0.233435,0.2762935 0.419836,0.5803616 0.549702,0.8967037 0.01271,0.030959 0.02235,0.05705 0.02142,0.05798 -9.3e-4,9.3e-4 -0.0042,-0.00331 -0.0073,-0.00941 z"
     id="path2343" />
  <path
     style="fill:#fb6100;fill-opacity:1;stroke-width:0.00390625"
     d="M 10.982422,7.1982153 C 10.860741,6.962327 10.805054,6.8642316 10.724346,6.7436028 10.633911,6.6084348 10.521254,6.4647368 10.42009,6.3555126 10.40514,6.3393756 10.38757,6.3203306 10.38103,6.3131916 l -0.01189,-0.01298 0.01039,0.00257 c 0.0081,0.00199 0.01069,0.00103 0.01172,-0.00428 9.46e-4,-0.00488 0.01266,0.00596 0.04079,0.037751 0.250572,0.2831956 0.450888,0.5953736 0.589914,0.9193351 0.01379,0.032129 0.02459,0.059624 0.02402,0.0611 -5.78e-4,0.00148 -0.02918,-0.051839 -0.06355,-0.1184774 z"
     id="path2382" />
  <path
     style="fill:#fb6100;fill-opacity:1;stroke-width:0.00390625"
     d="M 5.0742187,8.002499 V 5.973748 L 5.1298827,5.92297 C 5.3200526,5.7494943 5.4964053,5.6189469 5.7019931,5.499458 5.8208484,5.4303785 6.0322221,5.3273335 6.1710144,5.2708092 6.3381515,5.2027414 6.5172473,5.1467374 6.6805977,5.1114604 l 0.045832,-0.0099 h 0.7625215 0.7625215 l 0.083442,0.021591 c 0.7176451,0.1856963 1.2826603,0.4834059 1.7821853,0.939045 0.06827,0.06227 0.262604,0.2576526 0.316956,0.318663 0.14407,0.1617174 0.261204,0.3195877 0.363972,0.4905522 0.05116,0.085118 0.08727,0.1519576 0.184976,0.3424635 l 0.07664,0.1494219 0.951232,-9.844e-4 0.951233,-9.845e-4 0.01916,-0.044808 c 0.01054,-0.024644 0.01994,-0.045592 0.0209,-0.046549 9.59e-4,-9.579e-4 0.0017,0.6199381 0.0017,1.3797688 V 10.03125 H 9.0390625 5.0742187 Z"
     id="path2421" />
  <path
     style="fill:#fb6100;fill-opacity:1;stroke-width:0.00390625"
     d="M 11.068141,7.350594 C 11.066641,7.345754 11.049731,7.304883 11.030521,7.259766 10.751844,6.6049817 10.238948,6.0225735 9.5761719,5.6083052 9.2264831,5.3897321 8.8608401,5.2317988 8.4486937,5.1213099 L 8.3769531,5.1020776 10.69043,5.10182 13.003906,5.1015625 V 6.150431 7.1992995 l -0.02478,0.05953 c -0.01363,0.032742 -0.02826,0.068319 -0.03252,0.079061 l -0.0077,0.019531 -0.934013,9.846e-4 -0.934014,9.846e-4 z"
     id="path2460" />
  <path
     style="fill:#fb6100;fill-opacity:1;stroke-width:0.00390625"
     d="m 11.068131,7.350594 c -0.0053,-0.017159 -0.06069,-0.1445508 -0.0895,-0.2058114 -0.143103,-0.3042989 -0.354924,-0.6142535 -0.59529,-0.871078 -0.03124,-0.033383 -0.04584,-0.04652 -0.04671,-0.042032 -6.91e-4,0.00359 0.0086,0.018177 0.0207,0.032414 0.04934,0.058161 0.0047,0.022876 -0.08839,-0.069911 -0.06621,-0.065969 -0.110873,-0.1152735 -0.107494,-0.1186524 0.0035,-0.00352 0.04663,0.035323 0.112744,0.10156 0.04683,0.046917 0.05783,0.056198 0.05783,0.048774 0,-0.016851 -0.179656,-0.1875011 -0.316406,-0.3005445 C 9.6190917,5.5975204 9.1605845,5.3453625 8.6756589,5.1883922 8.6071273,5.1662086 8.5158238,5.1395408 8.4199219,5.1136971 l -0.042969,-0.011579 2.3134771,-2.776e-4 2.313476,-2.777e-4 -2.38e-4,1.0498047 -2.38e-4,1.0498047 -0.0324,0.078125 -0.0324,0.078125 -0.933896,9.846e-4 -0.933896,9.846e-4 -0.0027,-0.0088 z"
     id="path2499" />
  <path
     style="fill:#fb6100;fill-opacity:1;stroke-width:0.00390625"
     d="m 10.357422,6.2578125 c -0.0083,-0.00851 -0.01424,-0.016361 -0.01316,-0.017435 0.0011,-0.00107 0.0088,0.00501 0.01707,0.013528 0.0083,0.00851 0.01424,0.01636 0.01316,0.017435 -0.0011,0.00107 -0.0088,-0.00501 -0.01707,-0.013528 z"
     id="path2538" />
  <path
     style="fill:#fb6100;fill-opacity:1;stroke-width:0.00390625"
     d=""
     id="path2577" />
  <path
     style="fill:#fb6100;fill-opacity:1;stroke-width:0.00390625"
     d="m 11.064846,7.3427734 c -0.004,-0.00913 -0.01047,-0.025391 -0.01434,-0.036133 -0.0039,-0.010742 -0.0097,-0.024805 -0.01285,-0.03125 -0.0032,-0.00645 -0.01637,-0.035648 -0.02926,-0.064894 -0.03587,-0.081385 -0.09318,-0.1952391 -0.136859,-0.2719002 -0.0088,-0.01551 -0.01607,-0.030012 -0.01607,-0.032227 0,-0.00221 -0.0014,-0.00403 -0.0032,-0.00403 -0.0018,0 -0.0061,-0.00571 -0.0096,-0.012695 -0.0036,-0.00698 -0.01176,-0.021484 -0.01825,-0.032226 -0.0065,-0.010742 -0.01305,-0.022168 -0.01458,-0.025391 -0.0015,-0.00322 -0.0042,-0.00762 -0.0059,-0.00977 -0.0017,-0.00215 -0.02931,-0.043505 -0.06129,-0.091904 -0.07331,-0.1109421 -0.144242,-0.2064413 -0.232012,-0.3123927 -0.05318,-0.064199 -0.165619,-0.1875 -0.17098,-0.1875 -0.0064,0 -0.004,0.00677 0.0066,0.019447 0.0062,0.00741 0.01257,0.011361 0.01606,0.010021 0.0041,-0.00159 0.0051,-3.758e-4 0.0033,0.0043 -0.0015,0.004 8.13e-4,0.010036 0.0061,0.015654 0.0047,0.00503 0.0075,0.010279 0.0061,0.011667 -0.0039,0.00394 -0.04199,-0.029975 -0.110148,-0.098161 -0.06968,-0.069707 -0.109757,-0.1142264 -0.106111,-0.117872 0.0034,-0.00342 0.03388,0.023397 0.107099,0.094272 0.03737,0.036176 0.06348,0.058761 0.06348,0.054921 0,-0.00909 -0.09854,-0.1067321 -0.208984,-0.2070792 -0.0064,-0.00586 -0.0213,-0.018812 -0.033,-0.02879 -0.02446,-0.020846 -0.05089,-0.043703 -0.05713,-0.049393 -0.0046,-0.00422 -0.02133,-0.017795 -0.058469,-0.047516 C 9.961569,5.8815413 9.948386,5.8708483 9.945255,5.8681693 9.942125,5.8654893 9.926379,5.8532283 9.910266,5.8409213 9.894043,5.8286194 9.8791016,5.8170902 9.8769531,5.8153059 9.8453735,5.7890803 9.67481,5.6710547 9.59375,5.6193366 9.5639384,5.6003161 9.4706463,5.5442584 9.428361,5.5199571 9.3405625,5.4694992 9.1734066,5.3857725 9.0488281,5.3298527 8.9664425,5.2928722 8.8073544,5.2323686 8.6953125,5.1954055 8.5874514,5.1598217 8.5876549,5.1598831 8.4941406,5.1346968 c -0.045117,-0.012151 -0.089941,-0.024395 -0.099609,-0.027207 -0.014538,-0.00423 0.3825645,-0.00518 2.2958984,-0.00552 l 2.313476,-4.067e-4 V 6.1513373 7.201112 l -0.02711,0.064483 c -0.01491,0.035466 -0.02976,0.071075 -0.033,0.079132 l -0.0059,0.014648 h -0.932872 -0.932872 z"
     id="path2616" />
  <path
     style="fill:#fb6100;fill-opacity:1;stroke-width:0.00390625"
     d="m 11.056684,7.3232502 c -0.1307,-0.3267903 -0.332128,-0.655437 -0.576397,-0.9404377 -0.05966,-0.069611 -0.136055,-0.1523438 -0.14067,-0.1523438 -0.0074,0 -0.0034,0.0089 0.01,0.022266 0.0075,0.00752 0.01367,0.014701 0.01367,0.015959 0,0.00126 0.0038,0.00635 0.0085,0.011313 0.0047,0.00496 0.0073,0.010161 0.006,0.01155 -0.0038,0.00385 -0.04082,-0.029183 -0.109987,-0.098276 -0.07004,-0.069957 -0.1099,-0.1141289 -0.106272,-0.1177567 0.0033,-0.00331 0.03251,0.022285 0.105406,0.092396 0.03398,0.032683 0.06276,0.058446 0.06396,0.057251 C 10.339394,6.216621 10.139875,6.027896 10.00559,5.9175328 9.6204758,5.6010839 9.1765147,5.3558418 8.7020751,5.1975179 c -0.083522,-0.027872 -0.1961,-0.061071 -0.2724899,-0.080356 -0.026768,-0.00676 -0.049414,-0.013032 -0.050325,-0.013943 -9.109e-4,-9.109e-4 1.0392618,-0.00166 2.3114948,-0.00166 h 2.313151 l -7e-5,1.0498047 -7e-5,1.0498047 -0.03264,0.078125 -0.03264,0.078125 -0.933672,9.845e-4 -0.933671,9.847e-4 -0.01445,-0.036141 z"
     id="path2655" />
  <path
     style="fill:#fb6100;fill-opacity:1;stroke-width:0.00390625"
     d="M 11.052667,7.3134846 C 10.90001,6.9390441 10.674934,6.5898428 10.381679,6.2724609 c -0.02134,-0.023096 -0.04036,-0.041992 -0.04227,-0.041992 -0.0072,0 -0.003,0.00904 0.0102,0.022266 0.0075,0.00752 0.01367,0.014701 0.01367,0.015959 0,0.00126 0.0038,0.00635 0.0085,0.011313 0.0047,0.00496 0.0073,0.010161 0.006,0.01155 -0.0039,0.00393 -0.04196,-0.029953 -0.110153,-0.098165 -0.06965,-0.069664 -0.109755,-0.1142183 -0.106106,-0.1178673 0.0033,-0.0033 0.03238,0.022129 0.1055,0.092273 0.03403,0.032648 0.0628,0.058437 0.06393,0.057308 0.0054,-0.0054 -0.105107,-0.1157292 -0.115921,-0.1157292 -0.0025,0 -0.0035,-0.00154 -0.0024,-0.00343 0.0012,-0.00189 -0.01675,-0.020851 -0.03981,-0.042142 C 9.702913,5.6299758 9.1180279,5.3058007 8.5,5.1366525 8.45166,5.1234225 8.404199,5.1102975 8.3945313,5.1074865 c -0.014533,-0.00423 0.3832002,-0.00518 2.2958987,-0.00552 l 2.313476,-4.067e-4 -3.9e-5,1.0498047 -3.9e-5,1.0498047 -0.03248,0.078125 -0.03248,0.078125 -0.933751,9.845e-4 -0.93375,9.847e-4 -0.01872,-0.045907 z"
     id="path2694" />
  <path
     style="fill:#fb6100;fill-opacity:1;stroke-width:0.00390625"
     d=""
     id="path2733" />
  <path
     style="fill:#fb6100;fill-opacity:1;stroke-width:0.00390625"
     d="M 5.0742187,7.5338033 V 5.9738567 l 0.040039,-0.03691 C 5.3643034,5.7064399 5.5958977,5.5459484 5.890625,5.398935 6.3565186,5.1665419 6.7433023,5.0647193 7.2574086,5.0391231 c 0.102135,-0.00509 0.415472,-0.00512 0.5218883,-5.09e-5 0.2473296,0.011771 0.4139477,0.041099 0.6978934,0.1228421 0.5808933,0.1672287 1.0606773,0.4149103 1.4879085,0.7681113 0.099374,0.082155 0.1816992,0.158009 0.3026642,0.278874 0.164174,0.1640389 0.247414,0.2583477 0.355194,0.4024285 0.131132,0.1752978 0.203195,0.2959816 0.363297,0.6084064 l 0.07357,0.1435625 0.951142,-9.844e-4 0.951142,-9.845e-4 0.01916,-0.044808 c 0.01054,-0.024644 0.01994,-0.045592 0.0209,-0.046549 9.59e-4,-9.579e-4 0.0017,0.4090006 0.0017,0.9110188 V 9.09375 H 9.0390625 5.0742187 Z"
     id="path2772" />
  <path
     style="fill:#fb6100;fill-opacity:1;stroke-width:0.00390625"
     d="M 5.0742187,7.5334688 V 5.9731876 l 0.047822,-0.043891 C 5.3757727,5.6964209 5.6181675,5.5312117 5.9258737,5.3814274 6.3617395,5.1692581 6.703868,5.0774103 7.1894531,5.0422068 c 0.095725,-0.00694 0.5717416,-0.00692 0.6640625,2.48e-5 0.2107912,0.015861 0.3706435,0.046508 0.6246191,0.1197507 0.5847005,0.1686193 1.0703704,0.4203681 1.4964747,0.7757034 0.1601566,0.1335567 0.3569836,0.3255694 0.4923796,0.4803344 0.0881,0.1007054 0.180755,0.221267 0.250626,0.3261205 0.09405,0.1411405 0.128259,0.2024119 0.308047,0.5517657 l 0.03468,0.067391 0.950882,-9.845e-4 0.950882,-9.844e-4 0.01916,-0.044808 c 0.01054,-0.024644 0.01994,-0.045592 0.0209,-0.046549 9.59e-4,-9.579e-4 0.0017,0.4090006 0.0017,0.9110188 V 9.09375 H 9.0390625 5.0742187 Z"
     id="path2811" />
  <path
     style="fill:#fb6100;fill-opacity:1;stroke-width:0.00390625"
     d="m 10.183174,6.1185488 c -0.003,-0.00365 -0.0345,-0.033138 -0.07002,-0.065524 C 9.6135648,5.5974763 9.0318641,5.2939874 8.3114934,5.1130486 8.0407414,5.0450425 7.8640264,5.0283928 7.4550781,5.0323591 7.2387072,5.0344576 7.1464695,5.03909 7.0058594,5.0549197 6.6078502,5.099727 6.2777274,5.2005874 5.8841595,5.3976257 5.7090662,5.4852855 5.5785828,5.5638084 5.4300832,5.6708816 5.3273075,5.7449865 5.2000934,5.8496666 5.118309,5.92743 5.096667,5.948008 5.077894,5.964844 5.07659,5.964844 c -0.0013,0 -0.00237,-0.00768 -0.00237,-0.017061 0,-0.016892 4.864e-4,-0.017499 0.049095,-0.061305 C 5.3884203,5.6475684 5.6900503,5.4523061 6.017579,5.3075698 6.4123846,5.1331035 6.8225862,5.0362234 7.2871103,5.0077358 c 0.086917,-0.00533 0.3287861,-0.00534 0.4179687,-1.06e-5 0.7504664,0.044817 1.4869035,0.3128281 2.1132813,0.7690843 0.085607,0.062356 0.1978527,0.1523861 0.2792967,0.224018 0.06779,0.059626 0.08192,0.073391 0.0753,0.073391 -0.0022,0 -0.0062,-0.00264 -0.0089,-0.00586 -0.0059,-0.00711 -0.01563,-0.00772 -0.01561,-9.766e-4 0,0.00269 0.0099,0.01595 0.02196,0.029476 0.01207,0.013526 0.0211,0.025434 0.02007,0.026462 -10e-4,0.00103 -0.0043,-0.00112 -0.0073,-0.00477 z"
     id="path2850" />
  <path
     style="fill:#fb6100;fill-opacity:1;stroke-width:0.00390625"
     d="M 10.121094,6.0577379 C 10.077918,6.0166629 9.9629613,5.9188983 9.8941605,5.8647432 9.4475148,5.5131768 8.9296495,5.2665175 8.3125,5.1113983 8.1311216,5.0658092 7.9941669,5.0450314 7.8105469,5.0352456 7.7157402,5.030193 7.3574868,5.0302008 7.2402628,5.035258 6.8793793,5.050827 6.5498237,5.1178414 6.2324219,5.2402001 6.0325031,5.317269 5.7705149,5.4469689 5.6010346,5.552775 5.4440591,5.6507742 5.2689636,5.7852346 5.1243151,5.9188604 c -0.034813,0.03216 -0.045963,0.040507 -0.047111,0.035268 -0.00415,-0.018926 0.014695,-0.03905 0.1239676,-0.1324012 0.4259943,-0.3639254 0.9630416,-0.6235129 1.529297,-0.7392013 0.2950883,-0.060288 0.5650929,-0.082866 0.890625,-0.074475 0.1309501,0.00338 0.1998749,0.00859 0.3333319,0.025206 0.7521883,0.093664 1.4902158,0.4190461 2.0807304,0.9173543 0.08623,0.072767 0.126281,0.1099416 0.119797,0.1111985 -0.0075,0.00146 -0.0082,0.00591 -0.0025,0.016572 0.0072,0.01352 -0.0015,0.00774 -0.03139,-0.020644 z"
     id="path2889" />
  <path
     style="fill:#fb6100;fill-opacity:1;stroke-width:0.00390625"
     d="m 2.0976563,9.5914195 c 0,-0.00128 -0.00517,-0.033362 -0.011493,-0.071289 C 2.0503426,9.3052047 2.0256981,9.0838852 2.0118419,8.8526898 2.0066635,8.7662859 2.0066258,8.2446014 2.0117918,8.1601563 2.07027,7.20427 2.3539531,6.3161787 2.8534155,5.5253906 3.0305782,5.2448927 3.2330006,4.9832483 3.4721865,4.7255879 l 0.05711,-0.061522 3.2041015,-1.9e-6 3.2041016,-1.9e-6 v 0.599653 0.5996531 l -0.03418,-0.026568 C 9.7504707,5.7179896 9.5594715,5.5928175 9.3801762,5.493956 9.2943805,5.4466491 9.1147313,5.3590923 9.0253906,5.3210418 8.661284,5.1659675 8.2930336,5.0661535 7.9277344,5.0235227 7.7899816,5.0074469 7.717598,5.0031801 7.5474145,5.0011044 7.3768887,4.9990245 7.286232,5.0019531 7.1523437,5.013867 6.1474582,5.1032853 5.2654114,5.5847494 4.686677,6.359748 4.3306447,6.8365202 4.1084526,7.3943305 4.029427,8.0097656 4.0080635,8.1761403 4,8.3103125 4,8.4994157 4,8.7929164 4.0251135,9.0424 4.0839916,9.3338086 c 0.014263,0.070593 0.049828,0.2232344 0.058973,0.2531055 0.00199,0.0065 -0.048462,0.00684 -1.0216079,0.00684 -0.5630354,0 -1.0237007,-0.00105 -1.0237007,-0.00233 z"
     id="path2928" />
  <path
     style="fill:#fb6100;fill-opacity:1;stroke-width:0.00390625"
     d="M 4.1684215,9.5810547 C 4.1576509,9.5473703 4.1149379,9.3684578 4.1015099,9.3007813 4.07556,9.1699949 4.0558971,9.0106992 4.0426845,8.8242188 4.0359475,8.7291332 4.033479,8.3851828 4.0387517,8.2762396 4.0530055,7.9817331 4.0833329,7.7684568 4.1410315,7.5569616 4.3326526,6.8545719 4.7466023,6.2194832 5.3046875,5.771661 5.4919889,5.6213654 5.6775031,5.5039217 5.9061043,5.3909213 6.2963854,5.1980006 6.6305664,5.0980331 7.0234375,5.0566805 c 0.1415598,-0.0149 0.2122738,-0.018281 0.4261415,-0.020375 0.4181986,-0.00409 0.5879612,0.011808 0.8631921,0.080857 0.5261574,0.1319997 1.0004906,0.341387 1.392307,0.6146132 0.05955,0.041526 0.1637649,0.1191013 0.2041016,0.1519287 L 9.9375,5.9067518 V 7.7502509 9.59375 H 7.0549904 4.1724809 Z"
     id="path2967" />
  <path
     style="fill:#fb6100;fill-opacity:1;stroke-width:0.00390625"
     d="M 4.1448864,9.5791016 C 4.0708081,9.297413 4.0250524,9.0089498 4.007799,8.7148438 4.0026162,8.6264967 4.0026067,8.3721439 4.0077831,8.2869501 4.0421094,7.7219989 4.1818913,7.2229281 4.4366171,6.755861 4.5865556,6.4809327 4.7833823,6.2197226 5.0117187,5.9926396 l 0.060547,-0.060215 0.00121,0.016297 c 0.0012,0.016287 0.00116,0.016343 -0.070907,0.091405 C 4.850599,6.1984034 4.741676,6.3313769 4.6258664,6.5 4.3394505,6.917032 4.133507,7.4283543 4.070489,7.8789062 4.042877,8.0763181 4.031342,8.2602605 4.031293,8.5039063 4.0312505,8.7176957 4.039043,8.8711273 4.05886,9.0464656 4.076871,9.2058531 4.097948,9.3204215 4.140174,9.4884613 4.166469,9.5931019 4.166576,9.59375 4.157685,9.59375 c -0.00705,0 -0.00976,-0.00311 -0.012799,-0.014648 z"
     id="path3006" />
  <path
     style="fill:#fb6100;fill-opacity:1;stroke-width:0.00390625"
     d="M 6.1521518,12.973631 C 6.0066727,12.802642 5.8735498,12.64119 5.7522554,12.488633 4.9377464,11.464196 4.4225647,10.550554 4.1773162,9.6955818 c -0.013909,-0.048488 -0.026147,-0.091022 -0.027196,-0.094519 -0.00132,-0.00439 0.00103,-0.00692 0.00756,-0.00817 0.00875,-0.00167 0.00998,1.428e-4 0.016296,0.023937 0.039847,0.1502006 0.1221384,0.3934262 0.1924143,0.5687152 0.1940406,0.483994 0.4922397,1.017447 0.8974538,1.605469 0.2502106,0.36309 0.5746593,0.782123 0.8990408,1.161132 l 0.0677,0.0791 -0.014707,-10e-7 c -0.014124,-2e-6 -0.016649,-0.0023 -0.063727,-0.05762 z"
     id="path3045" />
  <path
     style="fill:#fb6100;fill-opacity:1;stroke-width:0.00390625"
     d="M 5.9503636,15.708008 C 4.5739685,14.297167 3.6489523,13.138597 3.0225927,12.041016 2.8294981,11.702652 2.6412751,11.318909 2.5115037,10.999023 l -0.034467,-0.08496 H 3.579978 4.6829194 l 0.020482,0.03808 c 0.14737,0.274028 0.3929474,0.660449 0.6262086,0.985352 0.7536731,1.04977 1.8093837,2.194722 3.5072373,3.803711 L 8.94505,15.84375 H 7.5139207 6.0827917 Z"
     id="path3084" />
  <path
     style="fill:#fb6100;fill-opacity:1;stroke-width:0.00390625"
     d="M 6.0057609,15.764648 C 5.8631876,15.620343 5.6679375,15.417366 5.4956736,15.234375 3.9997643,13.645313 3.0625046,12.321353 2.5309671,11.046473 2.5098249,10.995764 2.4889604,10.945227 2.4846016,10.934169 l -0.00793,-0.02011 H 3.579798 4.6829195 l 0.020499,0.03808 c 0.1154342,0.214466 0.3126615,0.532646 0.4907327,0.791681 0.7466071,1.086071 1.8268082,2.273225 3.6017066,3.958319 L 8.9450059,15.84375 H 7.5144594 6.0839129 Z"
     id="path3123" />
  <path
     style="fill:#fb6100;fill-opacity:1;stroke-width:0.00390625"
     d=""
     id="path3162" />
  <path
     style="fill:#fb6100;fill-opacity:1;stroke-width:0.00390625"
     d="M 8.8867188,15.782255 C 7.8874482,14.832779 7.2761177,14.219613 6.6736084,13.5625 6.5425511,13.419565 6.2436083,13.083126 6.2075295,13.037961 c -0.00486,-0.0061 -0.00408,-0.0067 0.00843,-0.0067 0.01317,0 0.017919,0.0047 0.1049705,0.10442 0.6108981,0.699629 1.4338855,1.541452 2.4622713,2.518627 0.085919,0.08164 0.165892,0.15763 0.1777173,0.168866 l 0.021501,0.02043 -0.015625,-4.9e-5 c -0.014802,-4.5e-5 -0.019018,-0.0033 -0.080078,-0.06129 z"
     id="path3201" />
  <path
     style="fill:none;stroke:#fb6100;stroke-width:1px;stroke-linecap:butt;stroke-linejoin:miter;stroke-opacity:1"
     d="m 3.9995727,8.5957668 c 0,0.3830162 0,0.7660323 0,1.1490485 0,0.090504 -0.012844,0.1973502 0,0.2872617 0.016086,0.112599 0.08561,0.254053 0.1104855,0.353554 0.00715,0.02858 -0.00809,0.06006 0,0.08839 0.0073,0.02554 0.034869,0.04143 0.044194,0.06629 0.026375,0.07033 0.020441,0.14971 0.044194,0.220971 0.050849,0.152548 0.1387807,0.310438 0.2209709,0.441942 0.043646,0.06983 0.064805,0.152451 0.1104854,0.220971 0.073166,0.109749 0.1676634,0.203793 0.243068,0.309359 0.1023519,0.143293 0.1827856,0.315368 0.3093592,0.441942 0.1055999,0.1056 0.2249886,0.202891 0.3314563,0.309359 0.047868,0.04787 0.083354,0.127548 0.1325825,0.176777 0.026042,0.02604 0.060672,0.04204 0.088388,0.06629 0.1328914,0.11628 0.2415883,0.26074 0.3756504,0.375651 0.048108,0.04123 0.1098759,0.06568 0.1546796,0.110485 0.064496,0.0645 0.1117528,0.155947 0.1767767,0.220971 0.090993,0.09099 0.2207107,0.154419 0.3093593,0.243068 0.1271693,0.127169 0.2387596,0.276067 0.3756504,0.397747 0.055052,0.04894 0.1246934,0.0805 0.1767767,0.132583 0.05367,0.05367 -0.00657,0.03245 0.044194,0.06629 0.054181,0.03612 0.1351014,0.08257 0.1767767,0.132583 0.021088,0.0253 0.025048,0.06158 0.044194,0.08839 0.052952,0.07413 0.1372744,0.115177 0.1988737,0.176777 0.018779,0.01878 0.023456,0.0497 0.044194,0.06629 0.018188,0.01455 0.046318,0.01011 0.066291,0.0221 0.075831,0.0455 0.1102183,0.148955 0.1767767,0.198874 0.031732,0.0238 0.078753,0.0204 0.1104854,0.04419 0.05117,0.03838 0.075916,0.116902 0.1325825,0.15468 0.088618,0.05908 0.024919,-0.03369 0.1546796,0.110485 0.035532,0.03948 0.052659,0.09328 0.088388,0.132583 0.1342013,0.147621 0.3177693,0.260194 0.4419417,0.419844 0.2229918,0.286704 0.4974786,0.514799 0.7733981,0.751301 0.1868097,0.160123 0.372618,0.329435 0.574524,0.464039 0.09937,0.06624 0.174796,0.187705 0.265165,0.265165 0.152972,0.131119 0.300056,0.27476 0.464039,0.397748 0.04225,0.03169 0.004,0.01602 0.04419,0.06629 0.04555,0.05694 0.105901,0.100481 0.15468,0.154679 0.0631,0.07011 0.110077,0.154272 0.176777,0.220971 0.03335,0.03335 0.07714,0.05504 0.110485,0.08839 0.01878,0.01878 0.02541,0.04751 0.04419,0.06629 0.05297,0.05297 0.127146,0.07303 0.176777,0.132582 0.05359,0.06431 0.10496,0.150996 0.176777,0.198874 0.0369,0.0246 0.290609,0.0056 0.309359,0 0.09586,-0.02876 0.181636,-0.129046 0.265165,-0.176776 0.06298,-0.03599 0.135459,-0.05316 0.198874,-0.08839 0.132367,-0.07354 0.237522,-0.17234 0.353553,-0.265165 0.08718,-0.06975 -5.28e-4,0.04472 0.110485,-0.06629 0.03638,-0.03638 0.137056,-0.146002 0.15468,-0.198874 0.01643,-0.04928 0.03417,-0.106501 0.06629,-0.154679 0.08969,-0.134536 0.241512,-0.147033 0.353554,-0.243068 0.02796,-0.02397 0.04419,-0.05893 0.06629,-0.08839 0.03683,-0.02946 0.07366,-0.05892 0.110485,-0.08839 0.152244,-0.121795 0.322304,-0.206964 0.486136,-0.309359 0.09877,-0.06173 0.136902,-0.150914 0.220971,-0.220971 0.01789,-0.01491 0.0481,-0.0075 0.06629,-0.0221 0.02074,-0.01659 0.02542,-0.04751 0.0442,-0.06629 0.01878,-0.01878 0.04929,-0.02379 0.06629,-0.04419 0.02109,-0.0253 0.02505,-0.06158 0.04419,-0.08839 0.05232,-0.07324 0.119747,-0.149684 0.176777,-0.220971 0.05481,-0.06851 0.13939,-0.107379 0.198874,-0.176777 0.13796,-0.160954 -0.01774,-0.02405 0.198873,-0.220971 0.07491,-0.0681 0.172013,-0.127818 0.243068,-0.198873 0.01878,-0.01878 0.02379,-0.04929 0.04419,-0.06629 0.05338,-0.04448 0.121927,-0.06782 0.176777,-0.110485 0.124738,-0.09702 0.242947,-0.224912 0.375651,-0.309359 0.115583,-0.07355 0.261026,-0.111621 0.353553,-0.220971 0.05146,-0.06082 0.08336,-0.136226 0.132583,-0.198874 0.102271,-0.130163 0.248698,-0.225397 0.353553,-0.353553 0.08452,-0.1033 0.148331,-0.23672 0.243068,-0.331457 0.03335,-0.03335 0.07714,-0.05504 0.110485,-0.08839 0.109265,-0.109264 0.186495,-0.258089 0.287262,-0.37565 0.02578,-0.03008 0.137493,-0.131765 0.15468,-0.15468 0.01976,-0.02635 0.0209,-0.0651 0.04419,-0.08839 0.03037,-0.03037 0.07816,-0.03801 0.110486,-0.06629 0.02772,-0.02425 0.04419,-0.05893 0.06629,-0.08839 0.03683,-0.0221 0.07816,-0.03801 0.110485,-0.06629 0.07969,-0.06973 0.138024,-0.17197 0.220971,-0.243068 0.08353,-0.0716 0.170622,-0.136451 0.243068,-0.220971 0.0786,-0.0917 0.140479,-0.196709 0.220971,-0.287262 0.05536,-0.06228 0.125615,-0.110998 0.176777,-0.176777 0.07456,-0.09586 0.129037,-0.211588 0.198874,-0.309359 0.09926,-0.138971 0.209174,-0.285766 0.287262,-0.441942 0.118448,-0.236896 0.12884,-0.473544 0.176776,-0.729204 0.02586,-0.137925 0.08781,-0.285541 0.132583,-0.419844 0.09279,-0.278378 0.188079,-0.557042 0.265165,-0.8396896 0.03918,-0.1436652 0.125481,-0.2738514 0.154679,-0.4198447 0.02277,-0.1138694 -0.0081,-0.2626114 0,-0.3756505 0.0057,-0.07996 0.03429,-0.1036357 0.0221,-0.1767767 -0.03348,-0.2008704 -0.09131,-0.4114369 -0.176777,-0.5966213 -0.289699,-0.62768 0.19158,0.5427742 -0.220971,-0.4198447 -0.06423,-0.1498635 -0.09831,-0.3110451 -0.15468,-0.4640388 -0.04789,-0.1300017 -0.09378,-0.298043 -0.154679,-0.4198446 -0.0047,-0.00932 -0.02005,-0.011883 -0.0221,-0.022097 -0.02209,-0.1104581 0.03787,-0.07419 -0.04419,-0.1767767 -0.01547,-0.019337 -0.05661,-0.015143 -0.06629,-0.044194 -0.0047,-0.013975 0.0092,-0.032691 0,-0.044194 -0.02301,-0.028758 -0.06235,-0.04025 -0.08839,-0.066291 -0.048,-0.048014 -0.08232,-0.1089952 -0.132564,-0.1546753 C 19.146287,6.089998 18.883002,5.9017559 18.848815,5.8778251 18.731812,5.7959226 18.581627,5.7500083 18.451068,5.7010484 18.288331,5.6400221 18.128978,5.5612314 17.964932,5.5021746 17.781792,5.4362444 17.60795,5.389975 17.434602,5.3033009 17.070411,5.1212055 16.102753,4.7096911 15.711029,4.9055533 c -0.408396,0.2041979 -0.716547,0.5269405 -1.082757,0.7954951 -0.157052,0.115171 -0.360629,0.1607437 -0.508233,0.2872621 -0.02016,0.017283 -0.02542,0.047512 -0.0442,0.066291 -0.01878,0.018779 -0.04751,0.025415 -0.06629,0.044194 -0.08016,0.080158 -0.102139,0.1926892 -0.15468,0.2872621 -0.07102,0.1278463 -0.532147,0.7301126 -0.662912,0.7954951 -0.07906,0.039529 -0.176868,0.00401 -0.265165,0 -0.207626,-0.00944 -0.355847,-0.052646 -0.552427,-0.088388 -0.096,-0.017455 -0.195791,0.010663 -0.287262,0.022097 -0.1091,0.013637 -0.243914,0.00914 -0.353554,0 -0.213573,-0.017798 -0.103186,-0.014755 -0.309359,-0.088388 -0.100998,-0.036071 -0.209262,-0.049889 -0.309359,-0.088388 -0.154025,-0.05924 -0.320323,-0.1411289 -0.464039,-0.2209709 -0.03219,-0.017885 -0.05545,-0.049821 -0.08839,-0.066291 -0.04167,-0.020833 -0.09092,-0.023361 -0.132583,-0.044194 C 10.347274,6.5657535 10.299528,6.4873996 10.230951,6.4302523 10.111486,6.3306976 9.9728091,6.23489 9.8332037,6.1650872 9.7228827,6.1099268 9.5980588,6.0459302 9.4796503,6.0104076 9.4436764,5.9996155 9.4040364,6.0022592 9.3691648,5.9883105 9.3292877,5.9723597 9.2979267,5.9394625 9.2586794,5.9220193 9.2309274,5.909685 9.19556,5.9167682 9.1702911,5.8999222 9.148194,5.8851908 9.1486175,5.8477063 9.1260969,5.8336309 9.0865931,5.8089411 9.0344109,5.811744 8.9935144,5.7894368 8.9521098,5.7668524 8.9211717,5.7287886 8.8830289,5.7010484 8.6439015,5.5271375 8.2234884,5.2067481 7.9328542,5.1486212 7.5603822,5.0741268 7.201454,5.1419877 6.8500969,5.2591067 6.7072596,5.3067191 6.5391246,5.3540275 6.4081552,5.4358834 c -0.0265,0.016562 -0.039159,0.050787 -0.066291,0.066291 -0.026368,0.015067 -0.061225,0.00852 -0.088388,0.022097 -0.1151092,0.057555 -0.2176323,0.1588851 -0.3314563,0.2209709 -0.06937,0.037838 -0.1509018,0.053354 -0.2209709,0.088388 -0.1592549,0.079627 -0.3057993,0.1860453 -0.4640388,0.2651651 -0.035478,0.017739 -0.077482,0.022192 -0.1104854,0.044194 -0.034669,0.023112 -0.054483,0.06417 -0.088388,0.088388 -0.018954,0.013538 -0.048398,0.00719 -0.066291,0.022097 -0.028292,0.023577 -0.038575,0.064137 -0.066291,0.088388 -0.032322,0.028282 -0.077876,0.03834 -0.1104854,0.066291 -0.020164,0.017283 -0.030908,0.043296 -0.044194,0.066291 -0.178253,0.308514 -0.3535551,0.6187205 -0.5303318,0.9280797"
     id="path3301" />
  <path
     style="fill:#fb6100;stroke:#fb6100;stroke-width:1px;stroke-linecap:butt;stroke-linejoin:miter;stroke-opacity:1;fill-opacity:1"
     d="m 4.2205436,7.4025241 c -0.014731,0.1104854 -0.037649,0.2201855 -0.044194,0.3314563 -0.00822,0.1397067 0,0.2798964 0,0.4198447 0,0.017705 0.014109,0.1184738 0,0.1325825 -0.00521,0.00521 -0.018803,-0.00659 -0.022097,0 -0.028144,0.056288 -0.041501,0.1189326 -0.066291,0.1767767 -0.014795,0.034521 -0.0053,0.076893 -0.022097,0.1104854 -0.00615,0.012305 -0.156403,0 -0.1767767,0 -0.023292,0 -0.089349,-0.025391 -0.066291,-0.022097 0.060129,0.00859 0.1178511,0.029463 0.1767767,0.044194"
     id="path3303" />
</svg>
