<?xml version="1.0" encoding="UTF-8" standalone="no"?>
<!-- Generator: Adobe Illustrator 16.0.0, SVG Export Plug-In . SVG Version: 6.00 Build 0)  -->

<svg
   version="1.1"
   id="Capa_1"
   x="0px"
   y="0px"
   width="73.312px"
   height="73.312px"
   viewBox="0 0 73.312 73.312"
   style="enable-background:new 0 0 73.312 73.312;"
   xml:space="preserve"
   sodipodi:docname="payment.svg"
   inkscape:version="1.1.1 (3bf5ae0d25, 2021-09-20)"
   xmlns:inkscape="http://www.inkscape.org/namespaces/inkscape"
   xmlns:sodipodi="http://sodipodi.sourceforge.net/DTD/sodipodi-0.dtd"
   xmlns="http://www.w3.org/2000/svg"
   xmlns:svg="http://www.w3.org/2000/svg"><defs
   id="defs1149" /><sodipodi:namedview
   id="namedview1147"
   pagecolor="#ffffff"
   bordercolor="#666666"
   borderopacity="1.0"
   inkscape:pageshadow="2"
   inkscape:pageopacity="0.0"
   inkscape:pagecheckerboard="0"
   showgrid="false"
   inkscape:zoom="10.939547"
   inkscape:cx="36.610292"
   inkscape:cy="36.701704"
   inkscape:window-width="1920"
   inkscape:window-height="991"
   inkscape:window-x="-9"
   inkscape:window-y="-9"
   inkscape:window-maximized="1"
   inkscape:current-layer="Capa_1" />
<g
   id="g1114"
   style="fill:#0a3847;fill-opacity:1">
	<g
   id="g1112"
   style="fill:#0a3847;fill-opacity:1">
		<g
   id="g1110"
   style="fill:#0a3847;fill-opacity:1">
			<path
   d="M66.368,20.672c0.224,0,0.224,0,0.447,0l-3.359-12.99c-0.896-3.809-4.929-6.049-8.513-4.929L5.217,15.969     c-3.808,0.896-6.048,4.928-4.928,8.512l4.256,16.128v-9.632c0-5.822,4.704-10.526,10.528-10.526h51.295V20.672z"
   id="path1106"
   style="fill:#0a3847;fill-opacity:1" />
			<path
   d="M66.368,24.256h-51.52c-3.808,0-6.943,3.137-6.943,6.944v32.702c0,3.81,3.136,6.944,6.943,6.944h51.52     c3.808,0,6.943-3.137,6.943-6.944V31.202C73.313,27.392,70.176,24.256,66.368,24.256z M68.609,63.905     c0,1.345-1.119,2.239-2.239,2.239H14.85c-1.344,0-2.239-1.119-2.239-2.24v-8.286h56.223v8.286L68.609,63.905L68.609,63.905z      M68.609,39.489h-56v-8.287c0-1.345,1.12-2.24,2.239-2.24h51.52c1.345,0,2.239,1.12,2.239,2.24L68.609,39.489L68.609,39.489z"
   id="path1108"
   style="fill:#0a3847;fill-opacity:1" />
		</g>
	</g>
</g>
<g
   id="g1116">
</g>
<g
   id="g1118">
</g>
<g
   id="g1120">
</g>
<g
   id="g1122">
</g>
<g
   id="g1124">
</g>
<g
   id="g1126">
</g>
<g
   id="g1128">
</g>
<g
   id="g1130">
</g>
<g
   id="g1132">
</g>
<g
   id="g1134">
</g>
<g
   id="g1136">
</g>
<g
   id="g1138">
</g>
<g
   id="g1140">
</g>
<g
   id="g1142">
</g>
<g
   id="g1144">
</g>
</svg>
