<?xml version="1.0" encoding="UTF-8" standalone="no"?>
<!-- Generator: Adobe Illustrator 19.0.0, SVG Export Plug-In . SVG Version: 6.00 Build 0)  -->

<svg
   version="1.1"
   id="Layer_1"
   x="0px"
   y="0px"
   viewBox="0 0 460 460"
   style="enable-background:new 0 0 460 460;"
   xml:space="preserve"
   sodipodi:docname="credit_card.svg"
   inkscape:version="1.1.1 (3bf5ae0d25, 2021-09-20)"
   xmlns:inkscape="http://www.inkscape.org/namespaces/inkscape"
   xmlns:sodipodi="http://sodipodi.sourceforge.net/DTD/sodipodi-0.dtd"
   xmlns="http://www.w3.org/2000/svg"
   xmlns:svg="http://www.w3.org/2000/svg"><defs
   id="defs1489" /><sodipodi:namedview
   id="namedview1487"
   pagecolor="#ffffff"
   bordercolor="#666666"
   borderopacity="1.0"
   inkscape:pageshadow="2"
   inkscape:pageopacity="0.0"
   inkscape:pagecheckerboard="0"
   showgrid="false"
   inkscape:zoom="1.7434783"
   inkscape:cx="229.71321"
   inkscape:cy="229.71321"
   inkscape:window-width="1920"
   inkscape:window-height="991"
   inkscape:window-x="-9"
   inkscape:window-y="-9"
   inkscape:window-maximized="1"
   inkscape:current-layer="Layer_1" />
<g
   id="XMLID_88_"
   style="fill:#fb6100;fill-opacity:1">
	<g
   id="g1453"
   style="fill:#fb6100;fill-opacity:1">
		<g
   id="g1451"
   style="fill:#fb6100;fill-opacity:1">
			<path
   d="M434.743,82.126H25.257C11.308,82.126,0,93.435,0,107.383v164.49h460v-164.49C460,93.435,448.692,82.126,434.743,82.126z      M158.102,197.837L158.102,197.837c-0.001,6.6-5.401,12-12.001,12H56.657c-6.6,0-12-5.4-12-12v-42.127c0-6.6,5.4-12,12-12h89.445     c6.6,0,12,5.4,12,12V197.837z M313.511,216.495c-7.504,4.743-16.389,7.498-25.922,7.498c-26.842,0-48.601-21.76-48.601-48.601     c0-26.842,21.759-48.601,48.601-48.601c10.126,0,19.527,3.1,27.311,8.398c-8.836,11.549-14.102,25.967-14.102,41.599     C300.798,191.579,305.519,205.279,313.511,216.495z M369.399,225.389c-26.842,0-48.601-21.76-48.601-48.601     s21.759-48.601,48.601-48.601c26.842,0,48.601,21.759,48.601,48.601C418,203.631,396.241,225.389,369.399,225.389z"
   id="path1447"
   style="fill:#fb6100;fill-opacity:1" />
			<path
   d="M0,352.616c0,13.949,11.308,25.257,25.257,25.257h409.486c13.949,0,25.257-11.308,25.257-25.257v-12.743H0V352.616z"
   id="path1449"
   style="fill:#fb6100;fill-opacity:1" />
		</g>
	</g>
</g>
<g
   id="g1456">
</g>
<g
   id="g1458">
</g>
<g
   id="g1460">
</g>
<g
   id="g1462">
</g>
<g
   id="g1464">
</g>
<g
   id="g1466">
</g>
<g
   id="g1468">
</g>
<g
   id="g1470">
</g>
<g
   id="g1472">
</g>
<g
   id="g1474">
</g>
<g
   id="g1476">
</g>
<g
   id="g1478">
</g>
<g
   id="g1480">
</g>
<g
   id="g1482">
</g>
<g
   id="g1484">
</g>
</svg>
