<?xml version="1.0" encoding="UTF-8" standalone="no"?>
<!-- Generator: Adobe Illustrator 19.0.0, SVG Export Plug-In . SVG Version: 6.00 Build 0)  -->

<svg
   version="1.1"
   id="Layer_1"
   x="0px"
   y="0px"
   viewBox="0 0 150 150"
   style="enable-background:new 0 0 150 150;"
   xml:space="preserve"
   sodipodi:docname="menu.svg"
   inkscape:version="1.1.1 (3bf5ae0d25, 2021-09-20)"
   xmlns:inkscape="http://www.inkscape.org/namespaces/inkscape"
   xmlns:sodipodi="http://sodipodi.sourceforge.net/DTD/sodipodi-0.dtd"
   xmlns="http://www.w3.org/2000/svg"
   xmlns:svg="http://www.w3.org/2000/svg"><defs
   id="defs1096" /><sodipodi:namedview
   id="namedview1094"
   pagecolor="#ffffff"
   bordercolor="#666666"
   borderopacity="1.0"
   inkscape:pageshadow="2"
   inkscape:pageopacity="0.0"
   inkscape:pagecheckerboard="0"
   showgrid="false"
   inkscape:zoom="4.1933333"
   inkscape:cx="74.880763"
   inkscape:cy="75"
   inkscape:window-width="1600"
   inkscape:window-height="837"
   inkscape:window-x="-8"
   inkscape:window-y="-8"
   inkscape:window-maximized="1"
   inkscape:current-layer="XMLID_240_" />
<g
   id="XMLID_240_">
	<path
   id="XMLID_241_"
   d="M15,30h120c8.284,0,15-6.716,15-15s-6.716-15-15-15H15C6.716,0,0,6.716,0,15S6.716,30,15,30z"
   style="fill:#ffffff" />
	<path
   id="XMLID_242_"
   d="M135,60H15C6.716,60,0,66.716,0,75s6.716,15,15,15h120c8.284,0,15-6.716,15-15S143.284,60,135,60z"
   style="fill:#ffffff" />
	<path
   id="XMLID_243_"
   d="M135,120H15c-8.284,0-15,6.716-15,15s6.716,15,15,15h120c8.284,0,15-6.716,15-15S143.284,120,135,120z"
   style="fill:#ffffff" />
</g>
<g
   id="g1063">
</g>
<g
   id="g1065">
</g>
<g
   id="g1067">
</g>
<g
   id="g1069">
</g>
<g
   id="g1071">
</g>
<g
   id="g1073">
</g>
<g
   id="g1075">
</g>
<g
   id="g1077">
</g>
<g
   id="g1079">
</g>
<g
   id="g1081">
</g>
<g
   id="g1083">
</g>
<g
   id="g1085">
</g>
<g
   id="g1087">
</g>
<g
   id="g1089">
</g>
<g
   id="g1091">
</g>
</svg>
