<?xml version="1.0" encoding="UTF-8" standalone="no"?>
<!-- Generator: Adobe Illustrator 19.0.0, SVG Export Plug-In . SVG Version: 6.00 Build 0)  -->

<svg
   version="1.1"
   id="Capa_1"
   x="0px"
   y="0px"
   viewBox="0 0 60.364 60.364"
   style="enable-background:new 0 0 60.364 60.364;"
   xml:space="preserve"
   sodipodi:docname="plus.svg"
   inkscape:version="1.1.1 (3bf5ae0d25, 2021-09-20)"
   xmlns:inkscape="http://www.inkscape.org/namespaces/inkscape"
   xmlns:sodipodi="http://sodipodi.sourceforge.net/DTD/sodipodi-0.dtd"
   xmlns="http://www.w3.org/2000/svg"
   xmlns:svg="http://www.w3.org/2000/svg"><defs
   id="defs1150" /><sodipodi:namedview
   id="namedview1148"
   pagecolor="#ffffff"
   bordercolor="#666666"
   borderopacity="1.0"
   inkscape:pageshadow="2"
   inkscape:pageopacity="0.0"
   inkscape:pagecheckerboard="0"
   showgrid="false"
   inkscape:zoom="13.286065"
   inkscape:cx="30.144366"
   inkscape:cy="30.219633"
   inkscape:window-width="1920"
   inkscape:window-height="991"
   inkscape:window-x="-9"
   inkscape:window-y="-9"
   inkscape:window-maximized="1"
   inkscape:current-layer="Capa_1" />
<g
   id="g1115"
   style="fill:#256cce;fill-opacity:1">
	<path
   d="M54.454,23.18l-18.609-0.002L35.844,5.91C35.845,2.646,33.198,0,29.934,0c-3.263,0-5.909,2.646-5.909,5.91v17.269   L5.91,23.178C2.646,23.179,0,25.825,0,29.088c0.002,3.264,2.646,5.909,5.91,5.909h18.115v19.457c0,3.267,2.646,5.91,5.91,5.91   c3.264,0,5.909-2.646,5.91-5.908V34.997h18.611c3.262,0,5.908-2.645,5.908-5.907C60.367,25.824,57.718,23.178,54.454,23.18z"
   id="path1113"
   style="fill:#256cce;fill-opacity:1" />
</g>
<g
   id="g1117">
</g>
<g
   id="g1119">
</g>
<g
   id="g1121">
</g>
<g
   id="g1123">
</g>
<g
   id="g1125">
</g>
<g
   id="g1127">
</g>
<g
   id="g1129">
</g>
<g
   id="g1131">
</g>
<g
   id="g1133">
</g>
<g
   id="g1135">
</g>
<g
   id="g1137">
</g>
<g
   id="g1139">
</g>
<g
   id="g1141">
</g>
<g
   id="g1143">
</g>
<g
   id="g1145">
</g>
</svg>
