<svg width="1280" height="720" xmlns="http://www.w3.org/2000/svg" xmlns:xlink="http://www.w3.org/1999/xlink" overflow="hidden"><defs><clipPath id="clip0"><rect x="0" y="0" width="1280" height="720"/></clipPath><clipPath id="clip1"><rect x="411" y="270" width="458" height="459"/></clipPath><clipPath id="clip2"><rect x="411" y="270" width="458" height="459"/></clipPath><clipPath id="clip3"><rect x="411" y="270" width="458" height="459"/></clipPath><clipPath id="clip4"><rect x="506" y="3" width="268" height="267"/></clipPath><clipPath id="clip5"><rect x="506" y="3" width="268" height="267"/></clipPath><clipPath id="clip6"><rect x="506" y="3" width="268" height="267"/></clipPath></defs><g clip-path="url(#clip0)"><rect x="0" y="0" width="1280" height="720" fill="#FFFFFF" fill-opacity="0"/><g clip-path="url(#clip1)"><g clip-path="url(#clip2)"><g clip-path="url(#clip3)"><path d="M457.879 49.4108C457.609 49.2897 456.975 49.5785 455.746 50.3983 447.436 55.9318 414.467 68.9646 368.951 79.1746 326.08 88.7885 268.368 95.589 213.433 100.806 155.815 106.265 74.6751 108.333 14.8307 95.8033 9.79086 94.7506 6.54898 96.3902 7.0334 99.7811 7.37808 102.185 7.92771 104.355 9.90265 104.877 12.5483 105.576 13.6476 108.203 12.3434 111.808 10.238 117.593 3.73562 120.648 0.37263 124.663-3.08352 128.79 18.1844 134.072 28.264 132.396 40.272 130.393 24.901 139.457 43.3835 139.457 54.2177 139.457 46.9794 159.253 55.1493 159.616 56.91 159.7 75.0291 158.619 101.56 156.933 106.693 156.607 110.858 158.908 110.858 162.076 110.858 165.243 112.134 168.131 113.717 168.522 115.292 168.913 116.782 171.047 117.034 173.273 117.285 175.5 114.63 178.583 111.09 180.167 107.55 181.741 105.11 184.517 105.631 186.362 106.153 188.206 102.408 189.594 97.2658 189.464L60.776 188.514C55.6337 188.383 52.0937 192.398 52.8669 197.485L53.3886 200.913C54.1618 205.999 58.9594 210.089 64.1017 210.052L105.38 209.735C110.522 209.698 114.5 213.834 114.258 218.967L111.77 272.104C111.528 277.246 107.168 281.476 102.017 281.56L91.6578 281.727C86.5155 281.811 81.1775 280.069 79.7429 277.843 78.3083 275.616 77.1345 271.685 77.1345 269.067 77.1345 266.449 79.0442 264.102 81.4011 263.841 83.758 263.571 85.7795 261.978 85.9193 260.273 86.059 258.568 87.8756 257.292 89.9716 257.413 92.0677 257.534 93.7724 256.379 93.7724 254.805 93.7724 253.24 89.7014 251.069 84.6709 249.97L74.8055 247.799C69.7844 246.691 61.6051 246.56 56.5467 247.501L46.8396 249.308C41.7812 250.249 37.6822 252.075 37.6822 253.389 37.6822 254.702 39.2752 255.876 41.2316 256.016 43.1879 256.155 44.7809 257.432 44.7809 258.876 44.7809 260.32 47.7619 261.801 51.4416 262.192 55.1213 262.583 57.9999 265.248 57.8695 268.136 57.7391 271.023 55.9318 275.495 53.8358 278.113 51.7397 280.73 50.0349 286.366 50.0349 290.698 50.0349 295.03 51.1994 298.747 52.6434 299.017 54.078 299.287 55.3915 303.666 55.5778 308.808L56.8541 344.841C57.0404 349.984 55.6896 356.169 53.8451 358.666 52.0006 361.163 50.6218 366.379 50.7616 370.32 50.9013 374.261 52.1776 377.465 53.6215 377.465 55.0655 377.465 56.1647 381.639 56.0902 386.781L55.9039 399.031C55.8293 404.174 59.9376 408.431 65.0799 408.543L68.7596 408.617C73.9019 408.72 78.0754 404.639 78.0754 399.497L78.0754 389.604C78.0754 384.461 82.2488 380.213 87.3911 380.13L96.3622 379.981C101.505 379.897 105.753 383.996 105.836 389.138L105.976 397.14C106.069 402.282 110.308 406.344 115.45 406.195L131.986 405.739C137.128 405.599 141.367 401.314 141.451 396.171L141.609 386.278C141.693 381.136 145.279 376.86 149.611 376.729 153.952 376.599 157.464 380.67 157.464 385.812L157.464 390.954C157.464 396.097 161.638 400.354 166.78 400.457L170.963 400.54C176.105 400.643 180.111 396.563 179.915 391.42L179.673 385.337C179.468 380.195 180.484 376.031 181.937 376.031 183.39 376.031 184.126 372.193 183.595 367.46 183.064 362.728 181.89 356.98 180.968 354.623 180.055 352.266 179.226 346.192 179.133 341.041L178.564 311.649C178.462 306.507 179.235 302.436 180.279 302.567 181.322 302.697 182.067 299.073 181.937 294.48 181.806 289.888 180.959 284.68 180.046 282.845 179.133 281.01 178.276 277.181 178.136 274.293 177.996 271.405 179.803 269.067 182.17 269.067 184.536 269.067 186.455 267.791 186.455 266.207 186.455 264.633 188.374 263.142 190.74 262.891 193.106 262.639 195.025 261.577 195.025 260.515 195.025 259.463 191.038 257.366 186.129 255.839L176.319 252.792C171.41 251.265 163.389 251.088 158.414 252.392L152.704 253.892C147.729 255.196 143.584 257.311 143.444 258.624 143.304 259.938 144.683 261.419 146.528 261.941 148.372 262.462 149.76 263.953 149.639 265.257 149.509 266.57 151.111 267.847 153.207 268.117 155.303 268.387 156.896 271.685 156.756 275.486 156.617 279.286 152.341 282.063 147.217 281.681L146.807 281.653C141.674 281.271 137.519 276.781 137.519 271.638L137.519 218.976C137.519 213.834 141.683 209.446 146.826 209.185L286.469 202.031C291.611 201.77 295.589 205.72 295.365 210.862L292.869 267.362C292.645 272.505 289.58 276.771 286.031 276.902 282.482 277.032 279.501 275.644 279.37 273.818L279.137 270.502C279.137 270.502 278.932 267.623 278.672 264.074 278.42 260.525 280.013 257.543 282.24 257.413 284.466 257.283 286.59 255.699 286.991 253.864 287.382 252.029 288.872 250.436 290.307 250.296 291.742 250.156 292.915 248.666 292.915 246.951 292.915 245.237 288.863 242.871 283.87 241.641L276.799 239.909C271.806 238.679 263.701 238.688 258.708 239.909L245.88 243.067C240.887 244.296 236.835 246.467 236.835 247.92 236.835 249.374 238.754 250.333 241.12 250.063 243.486 249.793 245.508 251.078 245.638 252.923 245.768 254.767 247.576 256.789 249.672 257.441 251.768 258.093 253.789 261.177 254.19 264.335 254.581 267.493 254.162 272.067 253.24 274.563 252.327 277.06 251.684 283.125 251.814 288.108 251.945 293.092 252.578 298.207 253.24 299.511 253.901 300.825 254.507 306.051 254.6 311.202L255.205 345.801C255.298 350.943 254.413 357.026 253.249 359.383 252.075 361.74 251.33 367.591 251.591 372.444 251.842 377.307 252.792 381.35 253.715 381.48 254.628 381.611 254.926 385.859 254.376 390.973L254.013 394.336C253.463 399.45 257.189 403.596 262.332 403.596L272.691 403.596C277.833 403.596 282.007 399.423 282.007 394.28L282.007 391.029C282.007 385.887 285.304 381.825 289.375 381.965 293.446 382.104 296.744 386.39 296.744 391.532L296.744 393.321C296.744 398.463 300.918 402.636 306.06 402.636L327.337 402.636C332.479 402.636 336.327 398.482 335.917 393.349L335.507 388.141C335.097 383.008 337.957 378.965 341.888 379.105 345.82 379.245 349.108 383.53 349.22 388.672L349.294 391.886C349.415 397.028 353.682 401.202 358.824 401.202L364.898 401.202C370.041 401.202 373.888 397.047 373.487 391.914L373.05 386.25C372.649 381.117 372.854 376.757 373.506 376.496 374.158 376.245 374.894 372.314 375.164 367.712 375.434 363.11 374.587 357.157 373.273 354.39 371.96 351.633 370.944 345.223 371 340.072L371.717 275.066C371.773 269.924 373.525 265.108 375.621 264.325 377.717 263.534 379.319 261.41 379.189 259.574 379.058 257.739 380.232 256.146 381.816 256.006 383.39 255.867 384.676 254.264 384.676 252.438 384.676 250.603 380.605 248.218 375.574 247.11L369.994 245.88C364.973 244.772 356.859 244.911 351.875 246.197L340.463 249.141C335.479 250.426 331.65 252.224 331.902 253.146 332.153 254.069 334.063 255.149 336.168 255.541 338.265 255.932 339.969 257.637 339.969 259.341 339.969 261.046 342.308 262.956 345.195 263.608 348.083 264.26 350.002 266.803 349.481 269.3 348.959 271.797 347.795 275.197 346.872 276.902 345.959 278.606 341.693 280.209 337.361 280.47 333.029 280.73 328.585 276.883 327.449 271.862L321.133 243.905C319.996 238.884 319.018 230.649 318.944 225.507L318.72 210.406C318.646 205.263 322.745 200.838 327.877 200.531L387.713 196.907C392.846 196.6 397.075 192.175 397.159 187.033L397.326 176.217C397.41 171.075 393.339 167.441 388.234 168.112L344.916 173.767C339.811 174.428 332.181 172.696 327.868 169.892L324.496 167.702C320.183 164.898 316.689 160.809 316.689 158.573 316.689 156.337 318.18 154.204 320.006 153.803 321.841 153.412 323.406 150.664 323.518 147.673 323.62 144.683 327.859 141.972 332.992 141.627 362.02 139.671 384.713 138.153 394.951 137.463 397.634 137.286 396.628 127.719 400.661 119.652 404.695 111.584 437.962 107.886 447.38 101.169 455.131 95.6356 446.216 80.7397 444.604 70.1663 444.259 67.9026 452.42 67.2039 452.42 65.5457 452.42 57.8974 458.932 49.8393 457.879 49.4108ZM103.964 355.322C102.52 357.278 97.2006 359.178 92.0677 359.551L91.1547 359.616C86.0217 359.989 81.0098 358.489 79.9478 356.263 78.8952 354.036 77.8425 348.065 77.6003 342.922L76.1191 311.165C75.8769 306.023 79.8547 301.793 84.997 301.71L97.2472 301.514C102.39 301.43 106.563 305.529 106.563 310.681L106.563 342.457 106.572 342.457C106.572 347.599 105.408 353.365 103.964 355.322ZM145.372 302.39 148.139 302.268C153.282 302.045 157.483 306.032 157.539 311.184L157.828 341.031C157.874 346.174 157.278 351.94 156.486 353.896 155.694 355.853 151.549 357.241 147.226 356.98 142.904 356.719 138.646 355.135 137.734 353.431 136.821 351.726 136.075 346.174 136.075 341.031L136.075 312.106C136.066 306.964 140.239 302.604 145.372 302.39ZM186.632 185.402 159.616 186.818C154.474 187.088 150.207 185.821 150.086 183.986 149.956 182.151 147.301 179.282 144.143 177.577 140.985 175.872 138.432 172.891 138.432 170.916 138.432 168.941 139.932 167.348 141.777 167.348 143.621 167.348 145.205 164.377 145.307 160.706 145.41 157.045 149.648 153.794 154.781 153.468 162.961 152.937 171.373 152.396 179.999 151.828 185.132 151.493 190.107 155.312 191.104 160.352L194.14 175.76C195.128 180.819 191.765 185.132 186.632 185.402ZM287.661 359.588C284.773 359.197 282.007 357.492 281.485 355.788 280.963 354.083 280.432 348.53 280.293 343.388L279.361 308.324C279.221 303.181 282.091 299.222 285.77 299.474 289.45 299.725 292.459 304.104 292.496 309.255L292.813 350.99C292.86 356.132 290.549 359.98 287.661 359.588ZM288.546 169.892 288.211 170.031C283.441 171.969 279.799 174.913 280.06 176.617 280.33 178.322 276.38 179.962 271.247 180.279L243.253 181.993C238.12 182.309 234.86 178.49 235.978 173.469L239.667 156.831C240.784 151.81 245.852 147.459 250.985 147.114 260.888 146.453 270.492 145.81 280.022 145.167 285.155 144.823 289.59 147.208 289.934 150.487 290.27 153.766 291.928 156.43 293.633 156.43 295.338 156.43 296.828 158.657 296.949 161.405 297.07 164.153 293.307 167.954 288.546 169.892ZM340.193 299.725C344.786 299.334 348.624 303.181 348.754 308.324L349.686 343.388C349.825 348.53 348.875 354.297 347.562 356.272 346.248 358.247 342.634 359.626 339.476 359.355 336.318 359.085 333.625 354.707 333.458 349.565L332.172 309.749C332.004 304.607 335.6 300.117 340.193 299.725Z" fill="#1D1C1A" transform="matrix(1 0 0 1.00218 411 270)"/></g></g></g><g clip-path="url(#clip4)"><g clip-path="url(#clip5)"><g clip-path="url(#clip6)"><path d="M171.626 215.983 161.633 211.859 105.369 211.859 95.3753 215.983C90.8916 217.732 88.681 222.779 90.427 227.26 96.5826 243.043 125.129 253.101 130.786 254.958 132.528 255.528 134.421 255.545 136.216 254.958 141.873 253.102 170.419 243.044 176.575 227.26 178.321 222.779 176.109 217.731 171.626 215.983Z" fill="#88CC2A" transform="matrix(1.00375 0 0 1 506 3)"/><path d="M171.626 215.983 161.633 211.859 133.501 211.859 133.501 255.389C134.41 255.389 135.325 255.25 136.216 254.958 141.873 253.102 170.42 243.044 176.575 227.26 178.321 222.779 176.109 217.731 171.626 215.983Z" fill="#7FB335" transform="matrix(1.00375 0 0 1 506 3)"/><path d="M56.1733 169.735C25.9725 175.352 3.69576 195.92 2.76074 196.793 0.9976 198.439 0 200.741 0 203.152 0 205.561 0.9976 207.865 2.76074 209.512 4.00239 210.674 33.6363 237.978 71.1039 237.978 108.571 237.978 138.205 210.674 139.447 209.512L56.1733 169.735Z" fill="#FF8095" transform="matrix(1.00375 0 0 1 506 3)"/><path d="M264.241 196.793C263.306 195.92 241.03 175.352 210.829 169.735L127.555 209.512C128.797 210.674 158.431 237.978 195.898 237.978 233.366 237.978 263 210.674 264.241 209.512 267.919 206.077 267.919 200.228 264.241 196.793Z" fill="#FF6680" transform="matrix(1.00375 0 0 1 506 3)"/><path d="M243.11 106.991C242.855 102.561 239.312 99.0299 234.885 98.789 233.207 98.718 193.251 96.8021 163.146 117.35L133.098 214.684C133.422 214.7 134.844 214.769 137.128 214.769 149.905 214.769 189.646 212.637 215.283 187.592 245.621 157.968 243.223 109.061 243.11 106.991Z" fill="#FF8095" transform="matrix(1.00375 0 0 1 506 3)"/><path d="M103.856 117.351C73.7514 96.8 33.8011 98.7076 32.1172 98.7895 27.6903 99.0304 24.1479 102.562 23.8923 106.992 23.7792 109.061 21.3814 157.967 51.7182 187.593 77.3622 212.638 117.102 214.769 129.873 214.769 132.158 214.769 133.58 214.701 133.903 214.684L103.856 117.351Z" fill="#FF99AA" transform="matrix(1.00375 0 0 1 506 3)"/><path d="M92.8701 55.1418C92.8701 59.9503 88.972 63.8485 84.1634 63.8485 79.3548 63.8485 75.4567 59.9503 75.4567 55.1418 75.4567 50.3332 79.3548 46.4351 84.1634 46.4351 88.972 46.4351 92.8701 50.3332 92.8701 55.1418Z" fill="#FFC033" transform="matrix(1.00375 0 0 1 506 3)"/><path d="M194.447 55.1418C194.447 59.9503 190.549 63.8485 185.74 63.8485 180.932 63.8485 177.034 59.9503 177.034 55.1418 177.034 50.3332 180.932 46.4351 185.74 46.4351 190.549 46.4351 194.447 50.3332 194.447 55.1418Z" fill="#F9A926" transform="matrix(1.00375 0 0 1 506 3)"/><path d="M142.208 20.3139C142.208 25.1225 138.31 29.0206 133.501 29.0206 128.692 29.0206 124.794 25.1225 124.794 20.3139 124.794 15.5053 128.692 11.6072 133.501 11.6072 138.31 11.6072 142.208 15.5053 142.208 20.3139Z" fill="#FFC033" transform="matrix(1.00375 0 0 1 506 3)"/><path d="M142.207 20.3139C142.207 15.5053 138.309 11.6072 133.501 11.6072L133.501 29.0206C138.309 29.0206 142.207 25.123 142.207 20.3139Z" fill="#F9A926" transform="matrix(1.00375 0 0 1 506 3)"/><path d="M139.247 60.1902C137.564 58.739 135.532 58.0428 133.501 58.0428 131.469 58.0428 129.438 58.7395 127.755 60.1902 126.188 61.5831 89.1556 94.4361 89.1556 136.402 89.1556 178.368 126.188 211.22 127.755 212.614 129.38 214.065 131.47 214.761 133.501 214.761 135.533 214.761 137.622 214.065 139.247 212.614 140.814 211.221 177.847 178.368 177.847 136.402 177.847 94.4361 140.814 61.5831 139.247 60.1902Z" fill="#FFB3BF" transform="matrix(1.00375 0 0 1 506 3)"/><path d="M177.847 136.402C177.847 178.368 140.814 211.22 139.247 212.614 137.622 214.065 135.532 214.761 133.501 214.761L133.501 58.0428C135.533 58.0428 137.564 58.7395 139.247 60.1902 140.814 61.5831 177.847 94.4361 177.847 136.402Z" fill="#FF99AA" transform="matrix(1.00375 0 0 1 506 3)"/></g></g></g><path d="M279 286 1000.6 286" stroke="#000000" stroke-width="4.33333" stroke-miterlimit="8" fill="none" fill-rule="evenodd"/></g></svg>